HIERARCHY
ROOT joint_0
{
	OFFSET 0.000000 0.000000 0.000000
	CHANNELS 6 Xposition Yposition Zposition Zrotation Yrotation Xrotation 
	JOINT joint_1
	{
		OFFSET 6.004005 -1.946999 100.587036
		CHANNELS 3 Zrotation Yrotation Xrotation
		JOINT joint_2
		{
			OFFSET -4.601006 -0.824997 91.925903
			CHANNELS 3 Zrotation Yrotation Xrotation
			JOINT joint_3
			{
				OFFSET -5.420998 -1.130005 91.774048
				CHANNELS 3 Zrotation Yrotation Xrotation
				JOINT joint_4
				{
					OFFSET 4.308998 -3.777992 123.473999
					CHANNELS 3 Zrotation Yrotation Xrotation
					JOINT joint_5
					{
						OFFSET 25.565002 -6.305008 79.437988
						CHANNELS 3 Zrotation Yrotation Xrotation
						End Site
						{
							OFFSET 0.000000 0.000000 0.000000
						}
					}
				}
				JOINT joint_6
				{
					OFFSET -1.750000 -28.655998 68.557983
					CHANNELS 3 Zrotation Yrotation Xrotation
					JOINT joint_7
					{
						OFFSET -17.692001 -116.544006 -17.244019
						CHANNELS 3 Zrotation Yrotation Xrotation
						JOINT joint_8
						{
							OFFSET 27.063004 -23.640991 -266.895020
							CHANNELS 3 Zrotation Yrotation Xrotation
							JOINT joint_9
							{
								OFFSET 40.722000 -15.761017 -232.488953
								CHANNELS 3 Zrotation Yrotation Xrotation
								End Site
								{
									OFFSET 0.000000 0.000000 0.000000
								}
							}
						}
					}
				}
				JOINT joint_10
				{
					OFFSET 6.593002 24.457001 69.892944
					CHANNELS 3 Zrotation Yrotation Xrotation
					JOINT joint_11
					{
						OFFSET 24.311996 114.920002 -19.872925
						CHANNELS 3 Zrotation Yrotation Xrotation
						JOINT joint_12
						{
							OFFSET 21.081001 15.319000 -268.037964
							CHANNELS 3 Zrotation Yrotation Xrotation
							JOINT joint_13
							{
								OFFSET 27.794006 -8.947001 -234.744080
								CHANNELS 3 Zrotation Yrotation Xrotation
								End Site
								{
									OFFSET 0.000000 0.000000 0.000000
								}
							}
						}
					}
				}
			}
		}
	}
	JOINT joint_14
	{
		OFFSET -6.627998 -80.520004 -98.790039
		CHANNELS 3 Zrotation Yrotation Xrotation
		JOINT joint_15
		{
			OFFSET -43.638000 -13.751999 -502.538971
			CHANNELS 3 Zrotation Yrotation Xrotation
			JOINT joint_16
			{
				OFFSET -39.532999 -9.912994 -398.071007
				CHANNELS 3 Zrotation Yrotation Xrotation
				JOINT joint_17
				{
					OFFSET 174.940004 -34.660995 -75.688002
					CHANNELS 3 Zrotation Yrotation Xrotation
					End Site
					{
						OFFSET 0.000000 0.000000 0.000000
					}
				}
			}
		}
	}
	JOINT joint_18
	{
		OFFSET 12.591003 79.842003 -98.765015
		CHANNELS 3 Zrotation Yrotation Xrotation
		JOINT joint_19
		{
			OFFSET -39.080002 -1.297001 -503.101013
			CHANNELS 3 Zrotation Yrotation Xrotation
			JOINT joint_20
			{
				OFFSET -51.570000 -0.514000 -396.815987
				CHANNELS 3 Zrotation Yrotation Xrotation
				JOINT joint_21
				{
					OFFSET 178.987999 -11.521999 -73.244003
					CHANNELS 3 Zrotation Yrotation Xrotation
					End Site
					{
						OFFSET 0.000000 0.000000 0.000000
					}
				}
			}
		}
	}
}
MOTION
Frames: 6
Frame Time: 0.016667
-2181.328857 1013.215271 1085.307983 5.922579 1.640151 -2.173474 0.995390 0.319433 -0.660702 1.008609 -0.186794 0.189213 0.989191 0.141652 -0.156883 -0.656272 -2.489003 1.354850 0.000000 0.000000 0.000000 3.486258 0.822313 0.736868 -0.363449 1.414559 0.617855 -0.987835 4.056239 -3.290405 0.000000 0.000000 0.000000 2.278485 -1.312932 0.829431 0.102858 -1.233400 -1.311769 0.660383 -2.020078 6.448409 0.000000 0.000000 0.000000 -2.408831 -13.490072 0.148493 -3.309184 17.333683 0.749844 -2.609934 -3.054414 -1.693502 0.000000 0.000000 0.000000 -0.984428 -15.236890 3.088591 -0.944270 23.287675 3.927135 0.365263 -5.774800 -0.232671 0.000000 0.000000 0.000000 
-2184.008545 1015.504272 1084.737061 5.660656 1.619909 -2.092747 0.885177 0.461911 -0.930740 0.896780 -0.128400 0.168970 0.877682 0.097876 -0.133742 -0.757735 -2.748044 1.592558 0.000000 0.000000 0.000000 3.517197 0.772738 0.855909 -0.363728 1.419254 0.415703 -0.935536 3.814930 -3.191273 0.000000 0.000000 0.000000 2.226244 -1.457522 0.874191 0.061286 -1.377820 -1.257933 0.677622 -1.418131 6.670748 0.000000 0.000000 0.000000 -2.223416 -14.355753 -0.073923 -3.121254 18.821152 0.538401 -2.388263 -3.252976 -1.636215 0.000000 0.000000 0.000000 -0.940207 -15.409233 2.920685 -0.848619 23.450142 3.842889 0.450877 -5.749293 -0.198078 0.000000 0.000000 0.000000 
-2186.602295 1017.720459 1084.311035 5.349128 1.554302 -1.949561 0.817494 0.673860 -1.270184 0.825307 -0.091459 0.188766 0.802639 0.068193 -0.134638 -0.840486 -3.007576 1.772903 0.000000 0.000000 0.000000 3.565790 0.768943 0.911149 -0.355413 1.433036 0.397991 -0.892827 3.508022 -3.160604 0.000000 0.000000 0.000000 2.164350 -1.625214 0.923684 0.011957 -1.549987 -1.176396 0.692821 -0.767427 6.937940 0.000000 0.000000 0.000000 -1.984195 -15.210944 -0.413813 -2.880654 20.410765 0.421347 -2.088805 -3.518472 -1.560702 0.000000 0.000000 0.000000 -0.883457 -15.490651 2.693793 -0.734768 23.534531 3.746995 0.545931 -5.689537 -0.157615 0.000000 0.000000 0.000000 
-2188.428467 1019.959534 1083.951050 4.874144 1.460548 -1.773735 0.840521 0.839248 -1.634468 0.841365 -0.092627 0.276342 0.806600 0.055845 -0.195493 -0.857740 -3.128048 1.792435 0.000000 0.000000 0.000000 3.593475 0.883966 0.820664 -0.336002 1.481125 0.752183 -0.893672 3.197607 -3.340876 0.000000 0.000000 0.000000 2.098401 -1.735129 1.030985 -0.028164 -1.641607 -1.133268 0.712387 -0.249516 7.273284 0.000000 0.000000 0.000000 -1.633622 -15.962376 -0.902143 -2.523088 21.929878 0.567614 -1.624181 -3.903355 -1.443128 0.000000 0.000000 0.000000 -0.733291 -15.202021 2.418225 -0.516340 23.030213 3.675950 0.723216 -5.603026 -0.082998 0.000000 0.000000 0.000000 
-2189.847412 1022.209961 1083.682983 4.275269 1.327053 -1.543654 0.937589 1.031675 -2.048305 0.926458 -0.125387 0.417402 0.872331 0.057270 -0.301141 -0.830667 -3.192374 1.691618 0.000000 0.000000 0.000000 3.630497 1.092883 0.605049 -0.306136 1.555437 1.421329 -0.922495 2.826152 -3.679797 0.000000 0.000000 0.000000 2.022433 -1.836667 1.174107 -0.068849 -1.711288 -1.110161 0.736217 0.249822 7.690106 0.000000 0.000000 0.000000 -1.179663 -16.679209 -1.540867 -2.059414 23.498615 0.917792 -1.003586 -4.384471 -1.283032 0.000000 0.000000 0.000000 -0.522600 -14.679614 2.075453 -0.235260 22.191678 3.615139 0.949523 -5.475371 0.013808 0.000000 0.000000 0.000000 
-2191.105957 1024.137085 1083.649048 3.728511 1.176142 -1.308735 1.041156 1.210506 -2.455515 1.013949 -0.172359 0.558399 0.940191 0.075308 -0.404860 -0.791088 -3.217459 1.564122 0.000000 0.000000 0.000000 3.632860 1.279915 0.473364 -0.282455 1.631123 1.996775 -0.948010 2.524590 -3.959443 0.000000 0.000000 0.000000 1.956848 -1.905713 1.262692 -0.095595 -1.783124 -0.976054 0.754996 0.667674 8.036698 0.000000 0.000000 0.000000 -0.805951 -17.254626 -2.133422 -1.658364 24.932911 1.174840 -0.458557 -4.903608 -1.163707 0.000000 0.000000 0.000000 -0.332598 -14.102989 1.746156 0.015052 21.272836 3.546993 1.141741 -5.286783 0.101645 0.000000 0.000000 0.000000 
